# xmcd
#
# Track frame offsets:
#	150
#	15428
#	39913
#	60142
#	80590
#	92007
#	119048
#	130271
#	151852
#
# Disc length: 2234 seconds
# Revision: 0
# Processed by: cddbd v1.5.2PL0 Copyright (c) Steve Scherf et al.
# Submitted via: dBpowerAMP V12.0
#
DISCID=6108b809
DTITLE=Roy Buchanan - That's What I Am Here For
DYEAR=1974
DGENRE=Blues
TTITLE0=My Baby Says She's Gonna Leave Me
TTITLE1=Hey Joe
TTITLE2=Home Is Where I Lost Her
TTITLE3=Rodney's Song
TTITLE4=That's What I Am Here For
TTITLE5=Roy's Bluz
TTITLE6=Voices
TTITLE7=Please Don't Turn Me Away
TTITLE8=Nephnesh
EXTD=
EXTT0=
EXTT1=
EXTT2=
EXTT3=
EXTT4=
EXTT5=
EXTT6=
EXTT7=
EXTT8=
PLAYORDER=
